<mxfile host="app.diagrams.net" modified="2021-03-28T10:19:50.614Z" agent="5.0 (Windows NT 10.0; Win64; x64) AppleWebKit/537.36 (KHTML, like Gecko) Chrome/88.0.4324.190 Safari/537.36" etag="TsozDnq8jJjz-_vk6krf" version="14.5.3" type="github">
  <diagram id="6a731a19-8d31-9384-78a2-239565b7b9f0" name="Page-1">
    <mxGraphModel dx="1221" dy="1472" grid="1" gridSize="10" guides="1" tooltips="1" connect="1" arrows="1" fold="1" page="1" pageScale="1" pageWidth="1169" pageHeight="827" background="#003469" math="0" shadow="0">
      <root>
        <mxCell id="0" />
        <mxCell id="1" parent="0" />
        <mxCell id="LOtfoSiw78J1hPSTE4bb-2085" value="" style="group;rotation=-90;" vertex="1" connectable="0" parent="1">
          <mxGeometry x="40" y="50" width="1065" height="740" as="geometry" />
        </mxCell>
        <mxCell id="2019" value="" style="rounded=1;whiteSpace=wrap;html=1;dashed=1;strokeColor=none;strokeWidth=2;fillColor=#E6E6E6;fontFamily=Verdana;fontSize=12;fontColor=#00BEF2;rotation=-90;" parent="LOtfoSiw78J1hPSTE4bb-2085" vertex="1">
          <mxGeometry x="485" y="485" width="165" height="670" as="geometry" />
        </mxCell>
        <mxCell id="2020" value="" style="rounded=1;whiteSpace=wrap;html=1;dashed=1;strokeColor=none;strokeWidth=2;fillColor=#E6E6E6;fontFamily=Verdana;fontSize=12;fontColor=#00BEF2;rotation=-90;" parent="LOtfoSiw78J1hPSTE4bb-2085" vertex="1">
          <mxGeometry x="485" y="305" width="165" height="670" as="geometry" />
        </mxCell>
        <mxCell id="2021" value="" style="rounded=1;whiteSpace=wrap;html=1;dashed=1;strokeColor=none;strokeWidth=2;fillColor=#E6E6E6;fontFamily=Verdana;fontSize=12;fontColor=#00BEF2;rotation=-90;" parent="LOtfoSiw78J1hPSTE4bb-2085" vertex="1">
          <mxGeometry x="485" y="125" width="165" height="670" as="geometry" />
        </mxCell>
        <mxCell id="2022" value="" style="rounded=1;whiteSpace=wrap;html=1;dashed=1;strokeColor=none;strokeWidth=2;fillColor=#E6E6E6;fontFamily=Verdana;fontSize=12;fontColor=#00BEF2;rotation=-90;" parent="LOtfoSiw78J1hPSTE4bb-2085" vertex="1">
          <mxGeometry x="485" y="-55" width="165" height="670" as="geometry" />
        </mxCell>
        <mxCell id="2023" value="" style="rounded=1;whiteSpace=wrap;html=1;dashed=1;strokeColor=none;strokeWidth=2;fillColor=#E6E6E6;fontFamily=Verdana;fontSize=12;fontColor=#00BEF2;rotation=-90;" parent="LOtfoSiw78J1hPSTE4bb-2085" vertex="1">
          <mxGeometry x="485" y="-235" width="165" height="670" as="geometry" />
        </mxCell>
        <mxCell id="2024" value="" style="rounded=1;whiteSpace=wrap;html=1;dashed=1;strokeColor=none;strokeWidth=2;fillColor=#E6E6E6;fontFamily=Verdana;fontSize=12;fontColor=#00BEF2;rotation=-90;" parent="LOtfoSiw78J1hPSTE4bb-2085" vertex="1">
          <mxGeometry x="485" y="-415" width="165" height="670" as="geometry" />
        </mxCell>
        <mxCell id="2025" value="Event" style="whiteSpace=wrap;html=1;dashed=1;strokeColor=none;strokeWidth=2;fillColor=#3399FF;fontFamily=Helvetica;fontSize=18;fontColor=#FFFFFF;fontStyle=1;rotation=-90;" parent="LOtfoSiw78J1hPSTE4bb-2085" vertex="1">
          <mxGeometry x="180" y="790" width="165" height="60" as="geometry" />
        </mxCell>
        <mxCell id="2026" value="Compute" style="whiteSpace=wrap;html=1;dashed=1;strokeColor=none;strokeWidth=2;fillColor=#3399FF;fontFamily=Helvetica;fontSize=18;fontColor=#FFFFFF;fontStyle=1;rotation=-90;" parent="LOtfoSiw78J1hPSTE4bb-2085" vertex="1">
          <mxGeometry x="180" y="610" width="165" height="60" as="geometry" />
        </mxCell>
        <mxCell id="2027" value="Data&lt;div&gt;Services&lt;/div&gt;" style="whiteSpace=wrap;html=1;dashed=1;strokeColor=none;strokeWidth=2;fillColor=#3399FF;fontFamily=Helvetica;fontSize=18;fontColor=#FFFFFF;fontStyle=1;rotation=-90;" parent="LOtfoSiw78J1hPSTE4bb-2085" vertex="1">
          <mxGeometry x="180" y="430" width="165" height="60" as="geometry" />
        </mxCell>
        <mxCell id="2028" value="Data&lt;div&gt;Storage&lt;/div&gt;" style="whiteSpace=wrap;html=1;dashed=1;strokeColor=none;strokeWidth=2;fillColor=#3399FF;fontFamily=Helvetica;fontSize=18;fontColor=#FFFFFF;fontStyle=1;rotation=-90;" parent="LOtfoSiw78J1hPSTE4bb-2085" vertex="1">
          <mxGeometry x="180" y="250" width="165" height="60" as="geometry" />
        </mxCell>
        <mxCell id="2029" value="App&lt;div&gt;Services&lt;/div&gt;" style="whiteSpace=wrap;html=1;dashed=1;strokeColor=none;strokeWidth=2;fillColor=#3399FF;fontFamily=Helvetica;fontSize=18;fontColor=#FFFFFF;fontStyle=1;rotation=-90;" parent="LOtfoSiw78J1hPSTE4bb-2085" vertex="1">
          <mxGeometry x="180" y="70" width="165" height="60" as="geometry" />
        </mxCell>
        <mxCell id="2030" value="&amp;nbsp; &amp;nbsp;Presentation" style="whiteSpace=wrap;html=1;dashed=1;strokeColor=none;strokeWidth=2;fillColor=#3399FF;fontFamily=Helvetica;fontSize=18;fontColor=#FFFFFF;fontStyle=1;rotation=-90;" parent="LOtfoSiw78J1hPSTE4bb-2085" vertex="1">
          <mxGeometry x="180" y="-110" width="165" height="60" as="geometry" />
        </mxCell>
        <mxCell id="2031" value="" style="shape=mxgraph.arrows.two_way_arrow_horizontal;html=1;verticalLabelPosition=bottom;verticalAlign=top;strokeWidth=2;strokeColor=none;dashed=1;fillColor=#FFFFFF;fontFamily=Verdana;fontSize=12;fontColor=#00BEF2;rotation=-90;" parent="LOtfoSiw78J1hPSTE4bb-2085" vertex="1">
          <mxGeometry x="230" y="710" width="67" height="39" as="geometry" />
        </mxCell>
        <mxCell id="2032" value="" style="shape=mxgraph.arrows.two_way_arrow_horizontal;html=1;verticalLabelPosition=bottom;verticalAlign=top;strokeWidth=2;strokeColor=none;dashed=1;fillColor=#FFFFFF;fontFamily=Verdana;fontSize=12;fontColor=#00BEF2;rotation=-90;" parent="LOtfoSiw78J1hPSTE4bb-2085" vertex="1">
          <mxGeometry x="230" y="530" width="67" height="39" as="geometry" />
        </mxCell>
        <mxCell id="2033" value="" style="shape=mxgraph.arrows.two_way_arrow_horizontal;html=1;verticalLabelPosition=bottom;verticalAlign=top;strokeWidth=2;strokeColor=none;dashed=1;fillColor=#FFFFFF;fontFamily=Verdana;fontSize=12;fontColor=#00BEF2;rotation=-90;" parent="LOtfoSiw78J1hPSTE4bb-2085" vertex="1">
          <mxGeometry x="230" y="350" width="67" height="39" as="geometry" />
        </mxCell>
        <mxCell id="2034" value="" style="shape=mxgraph.arrows.two_way_arrow_horizontal;html=1;verticalLabelPosition=bottom;verticalAlign=top;strokeWidth=2;strokeColor=none;dashed=1;fillColor=#FFFFFF;fontFamily=Verdana;fontSize=12;fontColor=#00BEF2;rotation=-90;" parent="LOtfoSiw78J1hPSTE4bb-2085" vertex="1">
          <mxGeometry x="230" y="169" width="67" height="39" as="geometry" />
        </mxCell>
        <mxCell id="2035" value="" style="shape=mxgraph.arrows.two_way_arrow_horizontal;html=1;verticalLabelPosition=bottom;verticalAlign=top;strokeWidth=2;strokeColor=none;dashed=1;fillColor=#FFFFFF;fontFamily=Verdana;fontSize=12;fontColor=#00BEF2;rotation=-90;" parent="LOtfoSiw78J1hPSTE4bb-2085" vertex="1">
          <mxGeometry x="230" y="-10" width="67" height="39" as="geometry" />
        </mxCell>
        <mxCell id="2036" value="" style="verticalLabelPosition=bottom;html=1;verticalAlign=top;strokeColor=none;fillColor=#003366;shape=mxgraph.azure.cloud_service;dashed=1;fontFamily=Helvetica;fontSize=18;fontColor=#FFFFFF;opacity=25;rotation=-90;" parent="LOtfoSiw78J1hPSTE4bb-2085" vertex="1">
          <mxGeometry x="108" y="68" width="970" height="600" as="geometry" />
        </mxCell>
        <mxCell id="2037" value="" style="verticalLabelPosition=bottom;html=1;verticalAlign=top;strokeColor=none;fillColor=#3399FF;shape=mxgraph.azure.tablet;dashed=1;fontFamily=Helvetica;fontSize=14;fontColor=#004C99;rotation=-90;direction=south;" parent="LOtfoSiw78J1hPSTE4bb-2085" vertex="1">
          <mxGeometry x="513.25" y="826.75" width="37.5" height="50" as="geometry" />
        </mxCell>
        <mxCell id="2038" value="" style="verticalLabelPosition=bottom;html=1;verticalAlign=top;strokeColor=none;fillColor=#3399FF;shape=mxgraph.azure.mobile;dashed=1;fontFamily=Helvetica;fontSize=14;fontColor=#004C99;rotation=-90;direction=south;" parent="LOtfoSiw78J1hPSTE4bb-2085" vertex="1">
          <mxGeometry x="507.5" y="761.5" width="50" height="35" as="geometry" />
        </mxCell>
        <mxCell id="2039" value="Devices" style="verticalLabelPosition=bottom;html=1;verticalAlign=top;strokeColor=none;fillColor=#3399FF;shape=mxgraph.azure.laptop;dashed=1;fontFamily=Helvetica;fontSize=14;fontColor=#004C99;rotation=-90;direction=south;" parent="LOtfoSiw78J1hPSTE4bb-2085" vertex="1">
          <mxGeometry x="564" y="797" width="30" height="50" as="geometry" />
        </mxCell>
        <mxCell id="2040" value="Applications" style="verticalLabelPosition=bottom;html=1;verticalAlign=top;strokeColor=none;fillColor=#3399FF;shape=mxgraph.azure.mobile_services;dashed=1;fontFamily=Helvetica;fontSize=14;fontColor=#004C99;rotation=-90;" parent="LOtfoSiw78J1hPSTE4bb-2085" vertex="1">
          <mxGeometry x="371" y="794" width="32.5" height="50" as="geometry" />
        </mxCell>
        <mxCell id="2041" value="Social" style="verticalLabelPosition=bottom;html=1;verticalAlign=top;strokeColor=none;fillColor=#3399FF;shape=mxgraph.azure.user;dashed=1;fontSize=14;fontColor=#004C99;rotation=-90;direction=south;" parent="LOtfoSiw78J1hPSTE4bb-2085" vertex="1">
          <mxGeometry x="792.75" y="803.25" width="50" height="47.5" as="geometry" />
        </mxCell>
        <mxCell id="2042" value="" style="verticalLabelPosition=bottom;html=1;verticalAlign=top;strokeColor=none;fillColor=#3399FF;shape=mxgraph.azure.github_code;dashed=1;fontSize=14;fontColor=#004C99;rotation=-90;direction=south;" parent="LOtfoSiw78J1hPSTE4bb-2085" vertex="1">
          <mxGeometry x="673" y="760" width="50" height="50" as="geometry" />
        </mxCell>
        <mxCell id="2043" value="" style="verticalLabelPosition=bottom;html=1;verticalAlign=top;strokeColor=none;fillColor=#3399FF;shape=mxgraph.azure.dropbox_code_source;dashed=1;fontSize=14;fontColor=#004C99;rotation=-90;direction=south;" parent="LOtfoSiw78J1hPSTE4bb-2085" vertex="1">
          <mxGeometry x="675.25" y="819.75" width="47.5" height="50" as="geometry" />
        </mxCell>
        <mxCell id="2044" value="Repositories" style="text;html=1;strokeColor=none;fillColor=none;align=center;verticalAlign=middle;whiteSpace=wrap;overflow=hidden;dashed=1;fontSize=14;fontColor=#004C99;rotation=-90;" parent="LOtfoSiw78J1hPSTE4bb-2085" vertex="1">
          <mxGeometry x="683" y="813" width="120" height="20" as="geometry" />
        </mxCell>
        <mxCell id="2045" value="Azure Website" style="verticalLabelPosition=bottom;html=1;verticalAlign=top;strokeColor=none;fillColor=#3399FF;shape=mxgraph.azure.azure_website;dashed=1;fontSize=14;fontColor=#004C99;rotation=-90;direction=south;" parent="LOtfoSiw78J1hPSTE4bb-2085" vertex="1">
          <mxGeometry x="371" y="615" width="50" height="50" as="geometry" />
        </mxCell>
        <mxCell id="2046" value="Mobile Services" style="verticalLabelPosition=bottom;html=1;verticalAlign=top;strokeColor=none;fillColor=#3399FF;shape=mxgraph.azure.mobile_services;dashed=1;fontSize=14;fontColor=#004C99;rotation=-90;direction=south;" parent="LOtfoSiw78J1hPSTE4bb-2085" vertex="1">
          <mxGeometry x="773.25" y="619.75" width="50" height="32.5" as="geometry" />
        </mxCell>
        <mxCell id="2047" value="Windows Azure Management Portal" style="text;html=1;strokeColor=none;fillColor=none;align=center;verticalAlign=middle;whiteSpace=wrap;overflow=hidden;dashed=1;fontSize=36;fontColor=#FFFFFF;fontFamily=Helvetica;fontStyle=1;rotation=-90;" parent="LOtfoSiw78J1hPSTE4bb-2085" vertex="1">
          <mxGeometry x="-342" y="348" width="1060" height="50" as="geometry" />
        </mxCell>
        <mxCell id="2048" value="Business&amp;nbsp;&lt;div&gt;Analytics&lt;/div&gt;" style="rounded=1;whiteSpace=wrap;html=1;dashed=1;strokeColor=none;strokeWidth=2;fillColor=#FFFFFF;fontFamily=Helvetica;fontSize=14;fontColor=#FFB366;opacity=75;verticalAlign=top;fontStyle=1;rotation=-90;" parent="LOtfoSiw78J1hPSTE4bb-2085" vertex="1">
          <mxGeometry x="363" y="333" width="140" height="260" as="geometry" />
        </mxCell>
        <mxCell id="2049" value="Data&lt;div&gt;Management&lt;/div&gt;" style="rounded=1;whiteSpace=wrap;html=1;dashed=1;strokeColor=none;strokeWidth=2;fillColor=#FFFFFF;fontFamily=Helvetica;fontSize=14;fontColor=#FFB366;opacity=75;verticalAlign=top;fontStyle=1;rotation=-90;" parent="LOtfoSiw78J1hPSTE4bb-2085" vertex="1">
          <mxGeometry x="663" y="300" width="140" height="320" as="geometry" />
        </mxCell>
        <mxCell id="2050" value="SQL Reporting" style="verticalLabelPosition=bottom;html=1;verticalAlign=top;strokeColor=none;fillColor=#3399FF;shape=mxgraph.azure.sql_reporting;dashed=1;fontSize=14;fontColor=#004C99;rotation=-90;direction=south;" parent="LOtfoSiw78J1hPSTE4bb-2085" vertex="1">
          <mxGeometry x="371" y="443" width="50" height="40" as="geometry" />
        </mxCell>
        <mxCell id="2051" value="HDInsight" style="verticalLabelPosition=bottom;html=1;verticalAlign=top;strokeColor=none;fillColor=#3399FF;shape=mxgraph.azure.hdinsight;dashed=1;fontSize=14;fontColor=#004C99;rotation=-90;direction=south;" parent="LOtfoSiw78J1hPSTE4bb-2085" vertex="1">
          <mxGeometry x="468" y="435" width="50" height="50" as="geometry" />
        </mxCell>
        <mxCell id="2052" value="SQL Database" style="verticalLabelPosition=bottom;html=1;verticalAlign=top;strokeColor=none;fillColor=#3399FF;shape=mxgraph.azure.sql_database;dashed=1;fontFamily=Helvetica;fontSize=14;fontColor=#004C99;rotation=-90;direction=south;" parent="LOtfoSiw78J1hPSTE4bb-2085" vertex="1">
          <mxGeometry x="712.75" y="441.25" width="50" height="37.5" as="geometry" />
        </mxCell>
        <mxCell id="2053" value="Tables" style="verticalLabelPosition=bottom;html=1;verticalAlign=top;strokeColor=none;fillColor=#3399FF;shape=mxgraph.azure.storage_table;dashed=1;fontFamily=Helvetica;fontSize=14;fontColor=#004C99;rotation=-90;direction=south;" parent="LOtfoSiw78J1hPSTE4bb-2085" vertex="1">
          <mxGeometry x="801.5" y="434.5" width="45" height="50" as="geometry" />
        </mxCell>
        <mxCell id="2054" value="Blobs" style="verticalLabelPosition=bottom;html=1;verticalAlign=top;strokeColor=none;fillColor=#3399FF;shape=mxgraph.azure.storage_blob;dashed=1;fontFamily=Helvetica;fontSize=14;fontColor=#004C99;rotation=-90;direction=south;" parent="LOtfoSiw78J1hPSTE4bb-2085" vertex="1">
          <mxGeometry x="635.5" y="435.5" width="45" height="50" as="geometry" />
        </mxCell>
        <mxCell id="2055" value="Storage Management" style="rounded=1;whiteSpace=wrap;html=1;dashed=1;strokeColor=none;strokeWidth=2;fillColor=#FFFFFF;fontFamily=Helvetica;fontSize=14;fontColor=#FFB366;opacity=75;verticalAlign=top;fontStyle=1;rotation=-90;" parent="LOtfoSiw78J1hPSTE4bb-2085" vertex="1">
          <mxGeometry x="423" y="139" width="140" height="280" as="geometry" />
        </mxCell>
        <mxCell id="2056" value="Storage Servers" style="verticalLabelPosition=bottom;html=1;verticalAlign=top;strokeColor=none;fillColor=#3399FF;shape=mxgraph.azure.server_rack;dashed=1;fontFamily=Helvetica;fontSize=14;fontColor=#004C99;rotation=-90;direction=south;" parent="LOtfoSiw78J1hPSTE4bb-2085" vertex="1">
          <mxGeometry x="429" y="254" width="50" height="50" as="geometry" />
        </mxCell>
        <mxCell id="2057" value="Database" style="verticalLabelPosition=bottom;html=1;verticalAlign=top;strokeColor=none;fillColor=#3399FF;shape=mxgraph.azure.database;dashed=1;fontFamily=Helvetica;fontSize=14;fontColor=#004C99;rotation=-90;direction=south;" parent="LOtfoSiw78J1hPSTE4bb-2085" vertex="1">
          <mxGeometry x="526.75" y="261.25" width="50" height="37.5" as="geometry" />
        </mxCell>
        <mxCell id="2058" value="Physical&lt;div&gt;Data Storage&lt;/div&gt;" style="verticalLabelPosition=bottom;html=1;verticalAlign=top;strokeColor=none;fillColor=#3399FF;shape=mxgraph.azure.vhd;dashed=1;fontFamily=Helvetica;fontSize=14;fontColor=#004C99;rotation=-90;direction=south;" parent="LOtfoSiw78J1hPSTE4bb-2085" vertex="1">
          <mxGeometry x="703" y="260" width="50" height="40" as="geometry" />
        </mxCell>
        <mxCell id="2059" value="Identity" style="rounded=1;whiteSpace=wrap;html=1;dashed=1;strokeColor=none;strokeWidth=2;fillColor=#FFFFFF;fontFamily=Helvetica;fontSize=14;fontColor=#FFB366;opacity=75;verticalAlign=top;fontStyle=1;rotation=-90;" parent="LOtfoSiw78J1hPSTE4bb-2085" vertex="1">
          <mxGeometry x="306" y="33" width="140" height="134" as="geometry" />
        </mxCell>
        <mxCell id="2060" value="Windows Azure&amp;nbsp;&lt;div&gt;Active Directorry&lt;/div&gt;" style="verticalLabelPosition=bottom;html=1;verticalAlign=top;strokeColor=none;fillColor=#3399FF;shape=mxgraph.azure.azure_active_directory;dashed=1;fontFamily=Helvetica;fontSize=14;fontColor=#004C99;rotation=-90;" parent="LOtfoSiw78J1hPSTE4bb-2085" vertex="1">
          <mxGeometry x="339" y="75" width="47.5" height="50" as="geometry" />
        </mxCell>
        <mxCell id="2061" value="Performance" style="rounded=1;whiteSpace=wrap;html=1;dashed=1;strokeColor=none;strokeWidth=2;fillColor=#FFFFFF;fontFamily=Helvetica;fontSize=14;fontColor=#FFB366;opacity=75;verticalAlign=top;fontStyle=1;rotation=-90;" parent="LOtfoSiw78J1hPSTE4bb-2085" vertex="1">
          <mxGeometry x="483" y="-1" width="140" height="199" as="geometry" />
        </mxCell>
        <mxCell id="2062" value="Caching" style="verticalLabelPosition=bottom;html=1;verticalAlign=top;strokeColor=none;fillColor=#3399FF;shape=mxgraph.azure.azure_cache;dashed=1;fontFamily=Helvetica;fontSize=14;fontColor=#004C99;rotation=-90;" parent="LOtfoSiw78J1hPSTE4bb-2085" vertex="1">
          <mxGeometry x="491" y="74" width="45" height="50" as="geometry" />
        </mxCell>
        <mxCell id="2063" value="Content&amp;nbsp;&lt;div&gt;Delivery Network&lt;/div&gt;" style="verticalLabelPosition=bottom;html=1;verticalAlign=top;strokeColor=none;fillColor=#3399FF;shape=mxgraph.azure.content_delivery_network;dashed=1;fontFamily=Helvetica;fontSize=14;fontColor=#004C99;rotation=-90;" parent="LOtfoSiw78J1hPSTE4bb-2085" vertex="1">
          <mxGeometry x="559" y="82" width="50" height="32.5" as="geometry" />
        </mxCell>
        <mxCell id="2064" value="Messaging" style="rounded=1;whiteSpace=wrap;html=1;dashed=1;strokeColor=none;strokeWidth=2;fillColor=#FFFFFF;fontFamily=Helvetica;fontSize=14;fontColor=#FFB366;opacity=75;verticalAlign=top;fontStyle=1;rotation=-90;" parent="LOtfoSiw78J1hPSTE4bb-2085" vertex="1">
          <mxGeometry x="707" y="-15" width="140" height="229" as="geometry" />
        </mxCell>
        <mxCell id="2065" value="Queues" style="verticalLabelPosition=bottom;html=1;verticalAlign=top;strokeColor=none;fillColor=#3399FF;shape=mxgraph.azure.queue_generic;dashed=1;fontFamily=Helvetica;fontSize=14;fontColor=#004C99;rotation=-90;" parent="LOtfoSiw78J1hPSTE4bb-2085" vertex="1">
          <mxGeometry x="671" y="90" width="50" height="15" as="geometry" />
        </mxCell>
        <mxCell id="2066" value="Service Bus" style="verticalLabelPosition=bottom;html=1;verticalAlign=top;strokeColor=none;fillColor=#3399FF;shape=mxgraph.azure.service_bus;dashed=1;fontFamily=Helvetica;fontSize=14;fontColor=#004C99;rotation=-90;" parent="LOtfoSiw78J1hPSTE4bb-2085" vertex="1">
          <mxGeometry x="739" y="71" width="45" height="50" as="geometry" />
        </mxCell>
        <mxCell id="2067" value="Media Services" style="verticalLabelPosition=bottom;html=1;verticalAlign=top;strokeColor=none;fillColor=#3399FF;shape=mxgraph.azure.media_service;dashed=1;fontFamily=Helvetica;fontSize=14;fontColor=#004C99;rotation=-90;" parent="LOtfoSiw78J1hPSTE4bb-2085" vertex="1">
          <mxGeometry x="818" y="74" width="45" height="50" as="geometry" />
        </mxCell>
        <mxCell id="2068" value="Cloud&lt;div&gt;Services&lt;/div&gt;" style="rounded=1;whiteSpace=wrap;html=1;dashed=1;strokeColor=none;strokeWidth=2;fillColor=#FFFFFF;fontFamily=Helvetica;fontSize=14;fontColor=#FFB366;opacity=75;verticalAlign=top;fontStyle=1;rotation=-90;direction=west;" parent="LOtfoSiw78J1hPSTE4bb-2085" vertex="1">
          <mxGeometry x="551" y="528" width="140" height="223" as="geometry" />
        </mxCell>
        <mxCell id="2069" value="Cloud" style="verticalLabelPosition=bottom;html=1;verticalAlign=top;strokeColor=none;fillColor=#3399FF;shape=mxgraph.azure.cloud;dashed=1;fontSize=14;fontColor=#004C99;rotation=-90;direction=south;" parent="LOtfoSiw78J1hPSTE4bb-2085" vertex="1">
          <mxGeometry x="561.75" y="614.25" width="32.5" height="50" as="geometry" />
        </mxCell>
        <mxCell id="2070" value="Virtual Machine" style="verticalLabelPosition=bottom;html=1;verticalAlign=top;strokeColor=none;fillColor=#3399FF;shape=mxgraph.azure.virtual_machine;dashed=1;fontSize=14;fontColor=#004C99;rotation=-90;direction=south;" parent="LOtfoSiw78J1hPSTE4bb-2085" vertex="1">
          <mxGeometry x="649" y="615" width="40" height="50" as="geometry" />
        </mxCell>
        <mxCell id="2071" value="Web Dashboards" style="verticalLabelPosition=bottom;html=1;verticalAlign=top;strokeColor=none;fillColor=#3399FF;shape=mxgraph.azure.laptop;dashed=1;fontFamily=Helvetica;fontSize=14;fontColor=#004C99;rotation=-90;direction=south;" parent="LOtfoSiw78J1hPSTE4bb-2085" vertex="1">
          <mxGeometry x="414" y="-105" width="30" height="50" as="geometry" />
        </mxCell>
        <mxCell id="2072" value="Certificates" style="verticalLabelPosition=bottom;html=1;verticalAlign=top;strokeColor=none;fillColor=#3399FF;shape=mxgraph.azure.certificate;dashed=1;fontFamily=Helvetica;fontSize=14;fontColor=#004C99;rotation=-90;direction=south;" parent="LOtfoSiw78J1hPSTE4bb-2085" vertex="1">
          <mxGeometry x="512" y="-105" width="40" height="50" as="geometry" />
        </mxCell>
        <mxCell id="2073" value="Enterprise&lt;div&gt;Services&lt;/div&gt;" style="verticalLabelPosition=bottom;html=1;verticalAlign=top;strokeColor=none;fillColor=#3399FF;shape=mxgraph.azure.enterprise;dashed=1;fontFamily=Helvetica;fontSize=14;fontColor=#004C99;rotation=-90;direction=south;" parent="LOtfoSiw78J1hPSTE4bb-2085" vertex="1">
          <mxGeometry x="631" y="-95" width="50" height="30" as="geometry" />
        </mxCell>
        <mxCell id="2074" value="Seminars" style="verticalLabelPosition=bottom;html=1;verticalAlign=top;strokeColor=none;fillColor=#3399FF;shape=mxgraph.azure.user;dashed=1;fontFamily=Helvetica;fontSize=14;fontColor=#004C99;rotation=-90;direction=south;" parent="LOtfoSiw78J1hPSTE4bb-2085" vertex="1">
          <mxGeometry x="742.75" y="-105.75" width="50" height="47.5" as="geometry" />
        </mxCell>
        <mxCell id="2075" value="" style="arrow;html=1;endArrow=block;endFill=1;strokeColor=none;strokeWidth=4;fontFamily=Helvetica;fontSize=36;fontColor=#FFB366;fillColor=#FFB366;" parent="LOtfoSiw78J1hPSTE4bb-2085" edge="1">
          <mxGeometry width="100" height="100" relative="1" as="geometry">
            <mxPoint x="396" y="776" as="sourcePoint" />
            <mxPoint x="396" y="696" as="targetPoint" />
          </mxGeometry>
        </mxCell>
        <mxCell id="2076" value="" style="arrow;html=1;endArrow=block;endFill=1;strokeColor=none;strokeWidth=4;fontFamily=Helvetica;fontSize=36;fontColor=#FFB366;fillColor=#FFB366;opacity=100" parent="LOtfoSiw78J1hPSTE4bb-2085" edge="1">
          <mxGeometry width="100" height="100" relative="1" as="geometry">
            <mxPoint x="396" y="596" as="sourcePoint" />
            <mxPoint x="396" y="516" as="targetPoint" />
          </mxGeometry>
        </mxCell>
        <mxCell id="2077" value="" style="arrow;html=1;endArrow=block;endFill=1;strokeColor=none;strokeWidth=4;fontFamily=Helvetica;fontSize=36;fontColor=#FFB366;fillColor=#FFB366;" parent="LOtfoSiw78J1hPSTE4bb-2085" edge="1">
          <mxGeometry width="100" height="100" relative="1" as="geometry">
            <mxPoint x="473" y="416" as="sourcePoint" />
            <mxPoint x="473" y="336" as="targetPoint" />
          </mxGeometry>
        </mxCell>
        <mxCell id="2078" value="" style="arrow;html=1;endArrow=block;endFill=1;strokeColor=none;strokeWidth=4;fontFamily=Helvetica;fontSize=36;fontColor=#FFB366;fillColor=#FFB366;" parent="LOtfoSiw78J1hPSTE4bb-2085" edge="1">
          <mxGeometry width="100" height="100" relative="1" as="geometry">
            <mxPoint x="539" y="229" as="sourcePoint" />
            <mxPoint x="539" y="149" as="targetPoint" />
          </mxGeometry>
        </mxCell>
        <mxCell id="2079" value="" style="arrow;html=1;endArrow=block;endFill=1;strokeColor=none;strokeWidth=4;fontFamily=Helvetica;fontSize=36;fontColor=#FFB366;fillColor=#FFB366;" parent="LOtfoSiw78J1hPSTE4bb-2085" edge="1">
          <mxGeometry width="100" height="100" relative="1" as="geometry">
            <mxPoint x="383" y="229" as="sourcePoint" />
            <mxPoint x="383" y="149" as="targetPoint" />
          </mxGeometry>
        </mxCell>
        <mxCell id="2080" value="" style="arrow;html=1;endArrow=block;endFill=1;strokeColor=none;strokeWidth=4;fontFamily=Helvetica;fontSize=36;fontColor=#FFB366;fillColor=#FFB366;" parent="LOtfoSiw78J1hPSTE4bb-2085" edge="1">
          <mxGeometry width="100" height="100" relative="1" as="geometry">
            <mxPoint x="551" y="56" as="sourcePoint" />
            <mxPoint x="551" y="-24" as="targetPoint" />
          </mxGeometry>
        </mxCell>
        <mxCell id="2081" value="" style="arrow;html=1;endArrow=block;endFill=1;strokeColor=none;strokeWidth=4;fontFamily=Helvetica;fontSize=36;fontColor=#FFB366;fillColor=#FFB366;" parent="LOtfoSiw78J1hPSTE4bb-2085" edge="1">
          <mxGeometry width="100" height="100" relative="1" as="geometry">
            <mxPoint x="777" y="49" as="sourcePoint" />
            <mxPoint x="777" y="-31" as="targetPoint" />
          </mxGeometry>
        </mxCell>
        <mxCell id="2082" value="" style="arrow;html=1;endArrow=block;endFill=1;strokeColor=none;strokeWidth=4;fontFamily=Helvetica;fontSize=36;fontColor=#FFB366;fillColor=#FFB366;" parent="LOtfoSiw78J1hPSTE4bb-2085" edge="1">
          <mxGeometry width="100" height="100" relative="1" as="geometry">
            <mxPoint x="752" y="236" as="sourcePoint" />
            <mxPoint x="752" y="156" as="targetPoint" />
          </mxGeometry>
        </mxCell>
        <mxCell id="2083" value="" style="arrow;html=1;endArrow=block;endFill=1;strokeColor=none;strokeWidth=4;fontFamily=Helvetica;fontSize=36;fontColor=#FFB366;fillColor=#FFB366;" parent="LOtfoSiw78J1hPSTE4bb-2085" edge="1">
          <mxGeometry width="100" height="100" relative="1" as="geometry">
            <mxPoint x="737" y="409" as="sourcePoint" />
            <mxPoint x="737" y="329" as="targetPoint" />
          </mxGeometry>
        </mxCell>
        <mxCell id="2084" value="" style="arrow;html=1;endArrow=block;endFill=1;strokeColor=none;strokeWidth=4;fontFamily=Helvetica;fontSize=36;fontColor=#FFB366;fillColor=#FFB366;" parent="LOtfoSiw78J1hPSTE4bb-2085" edge="1">
          <mxGeometry width="100" height="100" relative="1" as="geometry">
            <mxPoint x="649" y="596" as="sourcePoint" />
            <mxPoint x="649" y="516" as="targetPoint" />
          </mxGeometry>
        </mxCell>
        <mxCell id="2085" value="" style="arrow;html=1;endArrow=block;endFill=1;strokeColor=none;strokeWidth=4;fontFamily=Helvetica;fontSize=36;fontColor=#FFB366;fillColor=#FFB366;" parent="LOtfoSiw78J1hPSTE4bb-2085" edge="1">
          <mxGeometry width="100" height="100" relative="1" as="geometry">
            <mxPoint x="801" y="769" as="sourcePoint" />
            <mxPoint x="801" y="689" as="targetPoint" />
          </mxGeometry>
        </mxCell>
      </root>
    </mxGraphModel>
  </diagram>
</mxfile>
